<svg width="128" height="66" viewBox="0 0 128 66" fill="none" xmlns="http://www.w3.org/2000/svg">
<path d="M22.0175 37.6982V44.014H6.38599V37.6982H9.26316V22.2772H6.78949L6.03509 27.0842H1.10527V16.1018H27.3684V27.0842H22.4561L21.7018 22.2772H19.1404V37.6982H22.0175ZM39.4035 37.8386V44.014H27.0877V37.8386H29.8597L34.6667 22.2772H31V16.1018H48.3858L54.6142 37.8386H57.3683V44.014H41.6667V37.8386H43.9474L43.193 34.8561H36.8597L36.0702 37.8386H39.4035ZM42.3509 30.6105L40.3158 22.0667L37.7544 30.6105H42.3509ZM71.9297 44.5228C69.3333 44.5228 66.971 43.9731 64.8421 42.8737C62.6899 41.786 60.9707 40.1485 59.6844 37.9614C58.4093 35.7742 57.772 33.0842 57.772 29.8912C57.772 27.2246 58.2575 24.7976 59.2281 22.6105C60.1986 20.4468 61.6201 18.7333 63.4912 17.4702C65.3743 16.1953 67.6491 15.5579 70.3156 15.5579C71.6724 15.5579 72.889 15.8795 73.9651 16.5228C75.0525 17.1544 75.8362 17.9556 76.3159 18.9263L77.0349 16.1018H82.4913V27.5579H76.8948V26.9789C76.8948 25.4936 76.5498 24.2772 75.8595 23.3298C75.1814 22.3824 74.1695 21.9087 72.8244 21.9087C71.9239 21.9087 71.0935 22.2538 70.3335 22.9438C69.5849 23.6456 68.9943 24.5637 68.5613 25.6983C68.1288 26.8211 67.9123 27.979 67.9123 29.1719C67.9123 31.5228 68.4971 33.3649 69.6666 34.6982C70.8361 36.0199 72.4386 36.6807 74.4736 36.6807C75.9121 36.6807 77.2455 36.4409 78.4739 35.9614C79.7135 35.4819 80.7312 34.9673 81.5261 34.4175L81.9124 34.7509V42.2245C80.4271 43.0784 78.8597 43.6749 77.2105 44.014C75.5613 44.3532 73.8012 44.5228 71.9297 44.5228ZM98.9472 44.5228C96.035 44.5228 93.5146 43.8971 91.3862 42.6456C89.269 41.3942 87.6549 39.6748 86.5437 37.4877C85.4443 35.3006 84.8945 32.8035 84.8945 29.9965C84.8945 27.0842 85.4443 24.5462 86.5437 22.3824C87.6432 20.207 89.2456 18.5286 91.3507 17.3474C93.4679 16.1544 96 15.5579 98.9472 15.5579C101.883 15.5579 104.409 16.1485 106.527 17.3298C108.632 18.5228 110.234 20.207 111.334 22.3824C112.445 24.5579 113 27.0959 113 29.9965C113 32.8035 112.45 35.3006 111.351 37.4877C110.252 39.6748 108.637 41.3942 106.509 42.6456C104.392 43.8971 101.871 44.5228 98.9472 44.5228ZM98.9472 38.2947C100.211 38.2947 101.175 37.5287 101.842 35.9965C102.52 34.4643 102.859 32.4175 102.859 29.8562C102.859 27.3649 102.532 25.3942 101.877 23.9439C101.234 22.4935 100.257 21.7684 98.9472 21.7684C97.6258 21.7684 96.6432 22.4935 96 23.9439C95.3569 25.3942 95.0353 27.3649 95.0353 29.8562C95.0353 32.4175 95.3685 34.4643 96.035 35.9965C96.7015 37.5287 97.6725 38.2947 98.9472 38.2947Z" fill="#3DE701"/>
<path d="M104.628 58.3006C104.412 58.3006 104.223 58.2378 104.062 58.112C103.9 57.9862 103.819 57.7168 103.819 57.3036C103.819 57.115 103.887 56.814 104.021 56.4008C104.156 55.9877 104.336 55.5026 104.56 54.9457C104.794 54.3798 105.054 53.7825 105.342 53.1537C105.629 52.5249 105.93 51.9006 106.244 51.2808C106.559 50.6611 106.864 50.0862 107.161 49.5562C107.457 49.0262 107.731 48.5771 107.983 48.2088C108.243 47.8316 108.454 47.5801 108.616 47.4543C108.849 47.2837 109.083 47.1983 109.316 47.1983C109.442 47.1983 109.564 47.2118 109.68 47.2387C109.806 47.2657 109.909 47.3106 109.99 47.3735C110.179 47.4903 110.345 47.7148 110.489 48.0472C110.641 48.3705 110.776 48.7613 110.893 49.2194C111.019 49.6775 111.122 50.1715 111.203 50.7015C111.293 51.2225 111.369 51.739 111.432 52.251C111.773 52.206 112.007 52.1836 112.132 52.1836C112.402 52.1836 112.64 52.224 112.847 52.3048C113.053 52.3767 113.161 52.5294 113.17 52.763C113.188 52.9875 113.116 53.1761 112.954 53.3288C112.802 53.4815 112.604 53.5938 112.362 53.6657C112.254 53.7016 111.993 53.76 111.58 53.8408C111.607 54.299 111.62 54.6852 111.62 54.9996C111.62 55.799 111.576 56.4188 111.486 56.859C111.405 57.2991 111.297 57.6135 111.162 57.8021C111.037 57.9907 110.902 58.103 110.758 58.139C110.623 58.1839 110.502 58.2063 110.394 58.2063C110.385 58.2063 110.376 58.2063 110.367 58.2063C110.107 58.2063 109.914 58.1389 109.788 58.0042C109.671 57.8695 109.613 57.6449 109.613 57.3305V56.3739C109.613 56.0775 109.608 55.7451 109.599 55.3768C109.59 55.0086 109.572 54.6178 109.546 54.2046C109.016 54.2945 108.486 54.3843 107.956 54.4741C107.435 54.555 106.986 54.6268 106.608 54.6897C106.438 55.0939 106.289 55.4577 106.164 55.7811C106.038 56.0954 105.953 56.3425 105.908 56.5221C105.773 56.9622 105.647 57.3081 105.53 57.5596C105.414 57.8021 105.301 57.9728 105.194 58.0716C105.095 58.1794 105 58.2423 104.911 58.2602C104.821 58.2872 104.726 58.3006 104.628 58.3006ZM107.349 53.0324C107.727 52.9426 108.09 52.8618 108.441 52.7899C108.791 52.7091 109.123 52.6372 109.438 52.5743C109.393 52.0174 109.339 51.474 109.276 50.944C109.213 50.414 109.141 49.9425 109.06 49.5293C108.827 49.9784 108.553 50.5173 108.239 51.1461C107.933 51.7659 107.637 52.3947 107.349 53.0324ZM114.866 62.2619C114.615 62.2619 114.417 62.1721 114.273 61.9924C114.139 61.8218 114.071 61.5568 114.071 61.1975C114.071 60.7034 114.116 60.1151 114.206 59.4324C114.296 58.7498 114.417 58.0267 114.57 57.2632C114.723 56.4997 114.889 55.7496 115.068 55.0131C115.284 54.1687 115.495 53.4007 115.702 52.7091C115.917 52.0174 116.133 51.465 116.348 51.0518C116.573 50.6296 116.798 50.4185 117.022 50.4185C117.229 50.4185 117.408 50.4949 117.561 50.6476C117.723 50.7913 117.804 51.0069 117.804 51.2943C117.804 51.5009 117.75 51.7973 117.642 52.1836C117.534 52.5608 117.399 53.0324 117.238 53.5983C117.543 53.0953 117.857 52.6013 118.181 52.1162C118.513 51.6312 118.85 51.191 119.191 50.7958C119.533 50.4006 119.865 50.0862 120.188 49.8526C120.512 49.6191 120.817 49.5023 121.105 49.5023C121.446 49.5023 121.747 49.6011 122.007 49.7987C122.277 49.9964 122.488 50.2658 122.641 50.6072C122.793 50.9485 122.87 51.3347 122.87 51.7659C122.87 52.5653 122.726 53.3423 122.439 54.0968C122.151 54.8424 121.751 55.5116 121.239 56.1044C120.736 56.6973 120.148 57.1688 119.474 57.5192C118.801 57.8605 118.073 58.0312 117.292 58.0312C117.067 58.0312 116.86 58.0087 116.672 57.9638C116.492 57.9279 116.326 57.8829 116.173 57.8291C116.065 58.4039 115.962 58.9923 115.863 59.5941C115.774 60.2049 115.679 60.8472 115.58 61.5208C115.473 62.0149 115.235 62.2619 114.866 62.2619ZM121.239 51.0922C121.042 51.0922 120.79 51.227 120.485 51.4964C120.188 51.7659 119.865 52.1207 119.515 52.5608C119.164 52.992 118.81 53.4636 118.45 53.9756C118.1 54.4786 117.763 54.9726 117.44 55.4577C117.125 55.9427 116.856 56.3649 116.631 56.7242C117.314 56.6524 117.916 56.4727 118.437 56.1853C118.958 55.8888 119.402 55.5295 119.771 55.1074C120.139 54.6852 120.435 54.2406 120.66 53.7735C120.894 53.2974 121.064 52.8348 121.172 52.3857C121.28 51.9366 121.334 51.5458 121.334 51.2135C121.334 51.1326 121.302 51.0922 121.239 51.0922ZM124.992 58.139C124.74 58.139 124.516 58.0536 124.318 57.883C124.129 57.7123 124.035 57.4338 124.035 57.0476C124.035 56.841 124.062 56.5491 124.116 56.1718C124.179 55.7945 124.26 55.3858 124.359 54.9457C124.457 54.4966 124.565 54.0519 124.682 53.6118C124.808 53.1717 124.929 52.7809 125.046 52.4396C125.162 52.0893 125.266 51.8288 125.356 51.6581C125.472 51.4515 125.58 51.3258 125.679 51.2808C125.787 51.227 125.89 51.2 125.989 51.2C126.168 51.2 126.335 51.2539 126.487 51.3617C126.649 51.4695 126.73 51.7075 126.73 52.0758C126.73 52.2195 126.703 52.4531 126.649 52.7764C126.595 53.0908 126.528 53.4591 126.447 53.8813C126.366 54.3034 126.276 54.7391 126.177 55.1882C126.088 55.6373 125.998 56.064 125.908 56.4682C125.827 56.8634 125.76 57.1958 125.706 57.4653C125.661 57.6898 125.567 57.856 125.423 57.9638C125.288 58.0806 125.144 58.139 124.992 58.139ZM126.541 49.8661C126.245 49.8661 125.971 49.7808 125.719 49.6101C125.468 49.4305 125.342 49.1565 125.342 48.7882C125.342 48.4828 125.418 48.2358 125.571 48.0472C125.724 47.8585 125.903 47.7238 126.11 47.643C126.326 47.5531 126.514 47.5082 126.676 47.5082C126.838 47.5082 127.017 47.5441 127.215 47.616C127.413 47.6789 127.583 47.8001 127.727 47.9798C127.88 48.1505 127.956 48.3975 127.956 48.7208C127.956 48.9364 127.88 49.134 127.727 49.3137C127.574 49.4844 127.386 49.6191 127.161 49.7179C126.945 49.8167 126.739 49.8661 126.541 49.8661Z" fill="#DBEAD6"/>
</svg>
